<?xml version="1.0" standalone="no"?>
<!DOCTYPE svg PUBLIC "-//W3C//DTD SVG 20010904//EN"
 "http://www.w3.org/TR/2001/REC-SVG-20010904/DTD/svg10.dtd">
<svg version="1.0" xmlns="http://www.w3.org/2000/svg"
 width="100.000000pt" height="100.000000pt" viewBox="0 0 100.000000 100.000000"
 preserveAspectRatio="xMidYMid meet">
<metadata>
Created by potrace 1.11, written by Peter Selinger 2001-2013
</metadata>
<g transform="translate(0.000000,100.000000) scale(0.100000,-0.100000)"
fill="#000000" stroke="none">
<path d="M238 860 c0 -3 -2 -170 -2 -372 -1 -247 2 -369 9 -371 5 -1 30 -3 55
-2 l45 1 5 120 5 120 42 52 41 52 33 -57 c18 -32 39 -69 47 -83 49 -91 115
-200 120 -201 4 -1 35 -2 69 -3 l62 -1 -21 35 c-11 19 -67 117 -125 218 l-104
182 22 33 c13 17 26 34 29 37 3 3 17 21 30 40 13 19 27 37 30 40 11 8 120 156
120 162 0 3 -29 5 -63 4 -57 -1 -66 -4 -90 -31 -15 -17 -27 -33 -27 -36 0 -3
-9 -17 -21 -30 -12 -13 -60 -77 -108 -142 l-86 -118 -3 179 -2 179 -55 0 c-30
-1 -56 -4 -57 -7z"/>
</g>
</svg>
